# xmcd CD database file
#
# Track frame offsets:
#	150
#	17310
#	33652
#	49162
#	74705
#	86152
#	104265
#	119842
#	135702
#	152777
#
# Disc length: 2444 seconds
#
# Revision: 0
# Processed by: cddbd v1.4PL0 Copyright (c) Steve Scherf et al.
# Submitted via: CDex 1.40Beta9
#
DISCID=8e098a0a
DTITLE=Bourbon Jones - Glory Train
DYEAR=1998
DGENRE=Blues
TTITLE0=Glory Train
TTITLE1=Christine
TTITLE2=Faith
TTITLE3=On My Way Home
TTITLE4=Anh Ah Ah
TTITLE5=Grinder
TTITLE6=Necessary Evil
TTITLE7=Praise the King
TTITLE8=Hand of Gold
TTITLE9=The Witness Song
EXTD=YEAR: 1998 ID3G: 0
EXTT0=
EXTT1=
EXTT2=
EXTT3=
EXTT4=
EXTT5=
EXTT6=
EXTT7=
EXTT8=
EXTT9=
PLAYORDER=
